 0 
SECTION
 2 
HEADER
 9 
$ACADVER
 1 
AC1004
 9 
$EXTMIN
 10 
0.0
 20 
0.0
 9 
$EXTMAX
 10 
1.2
 20 
1.5
 9 
$LIMMIN
 10 
0.0
 20 
0.0
 9 
$LIMMAX
 10 
1.2
 20 
1.5
 9 
$INSBASE
 10 
0.0
 20 
0.0
 9 
$VIEWCTR
 10 
0.6
 20 
0.75
 9 
$VIEWSIZE
 40 
1.5
 9 
$ORTHOMODE
 70 
 0 
 9 
$REGENMODE
 70 
 1 
 9 
$FILLMODE
 70 
 1 
 9 
$QTEXTMODE
 70 
 0 
 9 
$DRAGMODE
 70 
 2 
 9 
$LTSCALE
 40 
1.0
 9 
$OSMODE
 70 
 0 
 9 
$ATTMODE
 70 
 1 
 9 
$TEXTSIZE
 40 
0.2
 9 
$TRACEWID
 40 
0.05
 9 
$TEXTSTYLE
 7 
STANDARD
 9 
$CLAYER
 8 
0
 9 
$CELTYPE
 6 
BYLAYER
 9 
$CECOLOR
 62 
 256 
 9 
$DIMSCALE
 40 
1.0
 9 
$DIMLFAC
 40 
1.0
 9 
$LUNITS
 70 
 2 
 9 
$LUPREC
 70 
 4 
 9 
$AXISMODE
 70 
 0 
 9 
$AXISUNIT
 10 
0.0
 20 
0.0
 9 
$SKETCHINC
 40 
0.1
 9 
$MENU
 1 
acad
 9 
$ELEVATION
 40 
0.0
 9 
$THICKNESS
 40 
0.0
 9 
$VIEWDIR
 10 
0.0
 20 
0.0
 30 
1.0
 9 
$LIMCHECK
 70 
 0 
 9 
$BLIPMODE
 70 
 1 
 9 
$FASTZOOM
 70 
 1 
 9 
$SKPOLY
 70 
 0 
 9 
$ANGBASE
 50 
0.0
 9 
$ANGDIR
 70 
 0 
 9 
$PDMODE
 70 
 0 
 9 
$PDSIZE
 40 
0.0
 9 
$PLINEWID
 40 
0.0
 9 
$COORDS
 70 
 0 
 9 
$ATTDIA
 70 
 0 
 9 
$ATTREQ
 70 
 1 
 0 
ENDSEC
 0 
SECTION
 2 
TABLES
 0 
TABLE
 2 
LTYPE
 70 
 10 
 0 
LTYPE
 2 
CONTINUOUS
 70 
 64 
 3 
Solid line
 72 
 65 
 73 
 0 
 40 
0.0
 0 
ENDTAB
 0 
TABLE
 2 
LAYER
 70 
 153 
 0 
LAYER
 2 
0
 70 
 64 
 62 
 7 
 6 
CONTINUOUS
 0 
ENDTAB
 0 
ENDSEC
 0 
SECTION
 2 
BLOCKS
 0 
ENDSEC
 0 
SECTION
 2 
ENTITIES
 0 
LINE
 8 
0
 62 
 7 
 10 
0.0
 20 
1.5
 11 
1.2
 21 
1.5
 0 
LINE
 8 
0
 62 
 7 
 10 
1.2
 20 
1.5
 11 
1.2
 21 
0.0
 0 
LINE
 8 
0
 62 
 7 
 10 
1.2
 20 
0.0
 11 
0.0
 21 
0.0
 0 
LINE
 8 
0
 62 
 7 
 10 
0.0
 20 
0.0
 11 
0.0
 21 
1.5
 0 
LINE
 8 
0
 62 
 7 
 10 
0.472
 20 
1.028
 11 
0.528
 21 
1.028
 0 
LINE
 8 
0
 62 
 7 
 10 
0.528
 20 
1.028
 11 
0.528
 21 
0.972
 0 
LINE
 8 
0
 62 
 7 
 10 
0.528
 20 
0.972
 11 
0.472
 21 
0.972
 0 
LINE
 8 
0
 62 
 7 
 10 
0.472
 20 
0.972
 11 
0.472
 21 
1.028
 0 
CIRCLE
 8 
0
 62 
 7 
 10 
0.5
 20 
0.9
 40 
0.028
 0 
CIRCLE
 8 
0
 62 
 7 
 10 
0.5
 20 
0.8
 40 
0.028
 0 
CIRCLE
 8 
0
 62 
 7 
 10 
0.5
 20 
0.7
 40 
0.028
 0 
CIRCLE
 8 
0
 62 
 7 
 10 
0.8
 20 
0.7
 40 
0.028
 0 
CIRCLE
 8 
0
 62 
 7 
 10 
0.8
 20 
0.8
 40 
0.028
 0 
CIRCLE
 8 
0
 62 
 7 
 10 
0.8
 20 
0.9
 40 
0.028
 0 
CIRCLE
 8 
0
 62 
 7 
 10 
0.8
 20 
1.0
 40 
0.028
 0 
LINE
 8 
0
 62 
 7 
 10 
0.625
 20 
1.04
 11 
0.565
 21 
1.04
 0 
LINE
 8 
0
 62 
 7 
 10 
0.565
 20 
1.04
 11 
0.565
 21 
0.66
 0 
LINE
 8 
0
 62 
 7 
 10 
0.565
 20 
0.66
 11 
0.735
 21 
0.66
 0 
LINE
 8 
0
 62 
 7 
 10 
0.735
 20 
0.66
 11 
0.735
 21 
1.04
 0 
LINE
 8 
0
 62 
 7 
 10 
0.735
 20 
1.04
 11 
0.675
 21 
1.04
 0 
LINE
 8 
0
 62 
 7 
 10 
0.675
 20 
1.04
 11 
0.675
 21 
0.99
 0 
LINE
 8 
0
 62 
 7 
 10 
0.675
 20 
0.99
 11 
0.625
 21 
0.99
 0 
LINE
 8 
0
 62 
 7 
 10 
0.625
 20 
0.99
 11 
0.625
 21 
1.04
 0 
CIRCLE
 8 
0
 62 
 7 
 10 
0.1
 20 
0.975
 40 
0.028
 0 
CIRCLE
 8 
0
 62 
 7 
 10 
0.1
 20 
0.625
 40 
0.028
 0 
LINE
 8 
0
 62 
 7 
 10 
0.05
 20 
0.91
 11 
0.15
 21 
0.91
 0 
LINE
 8 
0
 62 
 7 
 10 
0.15
 20 
0.69
 11 
0.15
 21 
0.91
 0 
LINE
 8 
0
 62 
 7 
 10 
0.15
 20 
0.69
 11 
0.05
 21 
0.69
 0 
LINE
 8 
0
 62 
 7 
 10 
0.05
 20 
0.91
 11 
0.05
 21 
0.69
 0 
LINE
 8 
0
 62 
 7 
 10 
0.1
 20 
0.91
 11 
0.1
 21 
0.925
 0 
LINE
 8 
0
 62 
 7 
 10 
0.1
 20 
0.69
 11 
0.1
 21 
0.675
 0 
CIRCLE
 8 
0
 62 
 7 
 10 
1.0
 20 
1.0
 40 
0.028
 0 
CIRCLE
 8 
0
 62 
 7 
 10 
1.0
 20 
0.65
 40 
0.028
 0 
LINE
 8 
0
 62 
 7 
 10 
0.95
 20 
0.935
 11 
1.05
 21 
0.935
 0 
LINE
 8 
0
 62 
 7 
 10 
1.05
 20 
0.715
 11 
1.05
 21 
0.935
 0 
LINE
 8 
0
 62 
 7 
 10 
1.05
 20 
0.715
 11 
0.95
 21 
0.715
 0 
LINE
 8 
0
 62 
 7 
 10 
0.95
 20 
0.935
 11 
0.95
 21 
0.715
 0 
LINE
 8 
0
 62 
 7 
 10 
1.0
 20 
0.935
 11 
1.0
 21 
0.95
 0 
LINE
 8 
0
 62 
 7 
 10 
1.0
 20 
0.715
 11 
1.0
 21 
0.7
 0 
CIRCLE
 8 
0
 62 
 7 
 10 
0.25
 20 
0.525
 40 
0.028
 0 
CIRCLE
 8 
0
 62 
 7 
 10 
0.35
 20 
0.825
 40 
0.028
 0 
CIRCLE
 8 
0
 62 
 7 
 10 
0.25
 20 
1.025
 40 
0.028
 0 
LINE
 8 
0
 62 
 7 
 10 
0.205
 20 
0.395
 11 
0.205
 21 
1.145
 0 
LINE
 8 
0
 62 
 7 
 10 
0.395
 20 
1.145
 11 
0.205
 21 
1.145
 0 
LINE
 8 
0
 62 
 7 
 10 
0.395
 20 
1.145
 11 
0.395
 21 
0.395
 0 
LINE
 8 
0
 62 
 7 
 10 
0.205
 20 
0.395
 11 
0.395
 21 
0.395
 0 
LINE
 8 
0
 62 
 7 
 10 
0.255
 20 
1.145
 11 
0.255
 21 
1.205
 0 
LINE
 8 
0
 62 
 7 
 10 
0.345
 20 
1.205
 11 
0.255
 21 
1.205
 0 
LINE
 8 
0
 62 
 7 
 10 
0.345
 20 
1.205
 11 
0.345
 21 
1.145
 0 
LINE
 8 
0
 62 
 7 
 10 
0.255
 20 
1.145
 11 
0.345
 21 
1.145
 0 
LINE
 8 
0
 62 
 7 
 10 
0.068
 20 
1.332
 11 
0.133
 21 
1.332
 0 
LINE
 8 
0
 62 
 7 
 10 
0.133
 20 
1.332
 11 
0.133
 21 
1.267
 0 
LINE
 8 
0
 62 
 7 
 10 
0.133
 20 
1.267
 11 
0.068
 21 
1.267
 0 
LINE
 8 
0
 62 
 7 
 10 
0.068
 20 
1.267
 11 
0.068
 21 
1.332
 0 
CIRCLE
 8 
0
 62 
 7 
 10 
0.2
 20 
1.3
 40 
0.032
 0 
LINE
 8 
0
 62 
 7 
 10 
0.248
 20 
1.356
 11 
0.235
 21 
1.374
 0 
LINE
 8 
0
 62 
 7 
 10 
0.235
 20 
1.374
 11 
0.219
 21 
1.389
 0 
LINE
 8 
0
 62 
 7 
 10 
0.219
 20 
1.389
 11 
0.201
 21 
1.401
 0 
LINE
 8 
0
 62 
 7 
 10 
0.201
 20 
1.401
 11 
0.181
 21 
1.409
 0 
LINE
 8 
0
 62 
 7 
 10 
0.181
 20 
1.409
 11 
0.159
 21 
1.413
 0 
LINE
 8 
0
 62 
 7 
 10 
0.159
 20 
1.413
 11 
0.137
 21 
1.412
 0 
LINE
 8 
0
 62 
 7 
 10 
0.137
 20 
1.412
 11 
0.116
 21 
1.408
 0 
LINE
 8 
0
 62 
 7 
 10 
0.116
 20 
1.408
 11 
0.096
 21 
1.399
 0 
LINE
 8 
0
 62 
 7 
 10 
0.096
 20 
1.399
 11 
0.078
 21 
1.387
 0 
LINE
 8 
0
 62 
 7 
 10 
0.078
 20 
1.387
 11 
0.062
 21 
1.371
 0 
LINE
 8 
0
 62 
 7 
 10 
0.062
 20 
1.371
 11 
0.05
 21 
1.353
 0 
LINE
 8 
0
 62 
 7 
 10 
0.05
 20 
1.353
 11 
0.042
 21 
1.332
 0 
LINE
 8 
0
 62 
 7 
 10 
0.042
 20 
1.332
 11 
0.038
 21 
1.311
 0 
LINE
 8 
0
 62 
 7 
 10 
0.038
 20 
1.311
 11 
0.038
 21 
1.289
 0 
LINE
 8 
0
 62 
 7 
 10 
0.038
 20 
1.289
 11 
0.042
 21 
1.268
 0 
LINE
 8 
0
 62 
 7 
 10 
0.042
 20 
1.268
 11 
0.05
 21 
1.247
 0 
LINE
 8 
0
 62 
 7 
 10 
0.05
 20 
1.247
 11 
0.062
 21 
1.229
 0 
LINE
 8 
0
 62 
 7 
 10 
0.062
 20 
1.229
 11 
0.078
 21 
1.213
 0 
LINE
 8 
0
 62 
 7 
 10 
0.078
 20 
1.213
 11 
0.096
 21 
1.201
 0 
LINE
 8 
0
 62 
 7 
 10 
0.096
 20 
1.201
 11 
0.116
 21 
1.192
 0 
LINE
 8 
0
 62 
 7 
 10 
0.116
 20 
1.192
 11 
0.137
 21 
1.188
 0 
LINE
 8 
0
 62 
 7 
 10 
0.137
 20 
1.188
 11 
0.159
 21 
1.187
 0 
LINE
 8 
0
 62 
 7 
 10 
0.159
 20 
1.187
 11 
0.181
 21 
1.191
 0 
LINE
 8 
0
 62 
 7 
 10 
0.181
 20 
1.191
 11 
0.201
 21 
1.199
 0 
LINE
 8 
0
 62 
 7 
 10 
0.201
 20 
1.199
 11 
0.219
 21 
1.211
 0 
LINE
 8 
0
 62 
 7 
 10 
0.219
 20 
1.211
 11 
0.235
 21 
1.226
 0 
LINE
 8 
0
 62 
 7 
 10 
0.235
 20 
1.226
 11 
0.248
 21 
1.244
 0 
LINE
 8 
0
 62 
 7 
 10 
0.247
 20 
1.356
 11 
0.247
 21 
1.244
 0 
LINE
 8 
0
 62 
 7 
 10 
0.468
 20 
1.332
 11 
0.533
 21 
1.332
 0 
LINE
 8 
0
 62 
 7 
 10 
0.533
 20 
1.332
 11 
0.533
 21 
1.267
 0 
LINE
 8 
0
 62 
 7 
 10 
0.533
 20 
1.267
 11 
0.468
 21 
1.267
 0 
LINE
 8 
0
 62 
 7 
 10 
0.468
 20 
1.267
 11 
0.468
 21 
1.332
 0 
CIRCLE
 8 
0
 62 
 7 
 10 
0.6
 20 
1.3
 40 
0.032
 0 
LINE
 8 
0
 62 
 7 
 10 
0.648
 20 
1.356
 11 
0.635
 21 
1.374
 0 
LINE
 8 
0
 62 
 7 
 10 
0.635
 20 
1.374
 11 
0.619
 21 
1.389
 0 
LINE
 8 
0
 62 
 7 
 10 
0.619
 20 
1.389
 11 
0.601
 21 
1.401
 0 
LINE
 8 
0
 62 
 7 
 10 
0.601
 20 
1.401
 11 
0.581
 21 
1.409
 0 
LINE
 8 
0
 62 
 7 
 10 
0.581
 20 
1.409
 11 
0.559
 21 
1.413
 0 
LINE
 8 
0
 62 
 7 
 10 
0.559
 20 
1.413
 11 
0.537
 21 
1.412
 0 
LINE
 8 
0
 62 
 7 
 10 
0.537
 20 
1.412
 11 
0.516
 21 
1.408
 0 
LINE
 8 
0
 62 
 7 
 10 
0.516
 20 
1.408
 11 
0.496
 21 
1.399
 0 
LINE
 8 
0
 62 
 7 
 10 
0.496
 20 
1.399
 11 
0.478
 21 
1.387
 0 
LINE
 8 
0
 62 
 7 
 10 
0.478
 20 
1.387
 11 
0.462
 21 
1.371
 0 
LINE
 8 
0
 62 
 7 
 10 
0.462
 20 
1.371
 11 
0.45
 21 
1.353
 0 
LINE
 8 
0
 62 
 7 
 10 
0.45
 20 
1.353
 11 
0.442
 21 
1.332
 0 
LINE
 8 
0
 62 
 7 
 10 
0.442
 20 
1.332
 11 
0.438
 21 
1.311
 0 
LINE
 8 
0
 62 
 7 
 10 
0.438
 20 
1.311
 11 
0.438
 21 
1.289
 0 
LINE
 8 
0
 62 
 7 
 10 
0.438
 20 
1.289
 11 
0.442
 21 
1.268
 0 
LINE
 8 
0
 62 
 7 
 10 
0.442
 20 
1.268
 11 
0.45
 21 
1.247
 0 
LINE
 8 
0
 62 
 7 
 10 
0.45
 20 
1.247
 11 
0.462
 21 
1.229
 0 
LINE
 8 
0
 62 
 7 
 10 
0.462
 20 
1.229
 11 
0.478
 21 
1.213
 0 
LINE
 8 
0
 62 
 7 
 10 
0.478
 20 
1.213
 11 
0.496
 21 
1.201
 0 
LINE
 8 
0
 62 
 7 
 10 
0.496
 20 
1.201
 11 
0.516
 21 
1.192
 0 
LINE
 8 
0
 62 
 7 
 10 
0.516
 20 
1.192
 11 
0.537
 21 
1.188
 0 
LINE
 8 
0
 62 
 7 
 10 
0.537
 20 
1.188
 11 
0.559
 21 
1.187
 0 
LINE
 8 
0
 62 
 7 
 10 
0.559
 20 
1.187
 11 
0.581
 21 
1.191
 0 
LINE
 8 
0
 62 
 7 
 10 
0.581
 20 
1.191
 11 
0.601
 21 
1.199
 0 
LINE
 8 
0
 62 
 7 
 10 
0.601
 20 
1.199
 11 
0.619
 21 
1.211
 0 
LINE
 8 
0
 62 
 7 
 10 
0.619
 20 
1.211
 11 
0.635
 21 
1.226
 0 
LINE
 8 
0
 62 
 7 
 10 
0.635
 20 
1.226
 11 
0.648
 21 
1.244
 0 
LINE
 8 
0
 62 
 7 
 10 
0.647
 20 
1.356
 11 
0.647
 21 
1.244
 0 
CIRCLE
 8 
0
 62 
 7 
 10 
0.3
 20 
0.275
 40 
0.028
 0 
CIRCLE
 8 
0
 62 
 7 
 10 
0.5
 20 
0.275
 40 
0.028
 0 
CIRCLE
 8 
0
 62 
 7 
 10 
0.7
 20 
0.275
 40 
0.028
 0 
LINE
 8 
0
 62 
 7 
 10 
0.281
 20 
0.125
 11 
0.275
 21 
0.119
 0 
LINE
 8 
0
 62 
 7 
 10 
0.275
 20 
0.119
 11 
0.275
 21 
0.106
 0 
LINE
 8 
0
 62 
 7 
 10 
0.275
 20 
0.106
 11 
0.281
 21 
0.1
 0 
LINE
 8 
0
 62 
 7 
 10 
0.281
 20 
0.1
 11 
0.307
 21 
0.1
 0 
LINE
 8 
0
 62 
 7 
 10 
0.307
 20 
0.1
 11 
0.313
 21 
0.106
 0 
LINE
 8 
0
 62 
 7 
 10 
0.313
 20 
0.106
 11 
0.313
 21 
0.125
 0 
LINE
 8 
0
 62 
 7 
 10 
0.313
 20 
0.125
 11 
0.3
 21 
0.125
 0 
LINE
 8 
0
 62 
 7 
 10 
0.3
 20 
0.125
 11 
0.3
 21 
0.119
 0 
LINE
 8 
0
 62 
 7 
 10 
0.313
 20 
0.138
 11 
0.275
 21 
0.138
 0 
LINE
 8 
0
 62 
 7 
 10 
0.275
 20 
0.138
 11 
0.3
 21 
0.163
 0 
LINE
 8 
0
 62 
 7 
 10 
0.275
 20 
0.163
 11 
0.313
 21 
0.163
 0 
LINE
 8 
0
 62 
 7 
 10 
0.275
 20 
0.176
 11 
0.275
 21 
0.195
 0 
LINE
 8 
0
 62 
 7 
 10 
0.275
 20 
0.195
 11 
0.281
 21 
0.201
 0 
LINE
 8 
0
 62 
 7 
 10 
0.281
 20 
0.201
 11 
0.307
 21 
0.201
 0 
LINE
 8 
0
 62 
 7 
 10 
0.307
 20 
0.201
 11 
0.313
 21 
0.195
 0 
LINE
 8 
0
 62 
 7 
 10 
0.313
 20 
0.195
 11 
0.313
 21 
0.176
 0 
LINE
 8 
0
 62 
 7 
 10 
0.275
 20 
0.182
 11 
0.313
 21 
0.182
 0 
LINE
 8 
0
 62 
 7 
 10 
0.481
 20 
0.125
 11 
0.475
 21 
0.119
 0 
LINE
 8 
0
 62 
 7 
 10 
0.475
 20 
0.119
 11 
0.475
 21 
0.106
 0 
LINE
 8 
0
 62 
 7 
 10 
0.475
 20 
0.106
 11 
0.481
 21 
0.1
 0 
LINE
 8 
0
 62 
 7 
 10 
0.481
 20 
0.1
 11 
0.507
 21 
0.1
 0 
LINE
 8 
0
 62 
 7 
 10 
0.507
 20 
0.1
 11 
0.513
 21 
0.106
 0 
LINE
 8 
0
 62 
 7 
 10 
0.513
 20 
0.106
 11 
0.513
 21 
0.119
 0 
LINE
 8 
0
 62 
 7 
 10 
0.513
 20 
0.119
 11 
0.507
 21 
0.125
 0 
LINE
 8 
0
 62 
 7 
 10 
0.507
 20 
0.125
 11 
0.481
 21 
0.125
 0 
LINE
 8 
0
 62 
 7 
 10 
0.475
 20 
0.138
 11 
0.507
 21 
0.138
 0 
LINE
 8 
0
 62 
 7 
 10 
0.507
 20 
0.138
 11 
0.513
 21 
0.144
 0 
LINE
 8 
0
 62 
 7 
 10 
0.513
 20 
0.144
 11 
0.513
 21 
0.157
 0 
LINE
 8 
0
 62 
 7 
 10 
0.513
 20 
0.157
 11 
0.507
 21 
0.163
 0 
LINE
 8 
0
 62 
 7 
 10 
0.507
 20 
0.163
 11 
0.475
 21 
0.163
 0 
LINE
 8 
0
 62 
 7 
 10 
0.475
 20 
0.176
 11 
0.475
 21 
0.201
 0 
LINE
 8 
0
 62 
 7 
 10 
0.475
 20 
0.189
 11 
0.513
 21 
0.189
 0 
LINE
 8 
0
 62 
 7 
 10 
0.681
 20 
0.113
 11 
0.707
 21 
0.113
 0 
LINE
 8 
0
 62 
 7 
 10 
0.694
 20 
0.1
 11 
0.694
 21 
0.125
 0 
LINE
 8 
0
 62 
 7 
 10 
0.675
 20 
0.163
 11 
0.675
 21 
0.138
 0 
LINE
 8 
0
 62 
 7 
 10 
0.675
 20 
0.138
 11 
0.688
 21 
0.138
 0 
LINE
 8 
0
 62 
 7 
 10 
0.688
 20 
0.138
 11 
0.688
 21 
0.157
 0 
LINE
 8 
0
 62 
 7 
 10 
0.688
 20 
0.157
 11 
0.694
 21 
0.163
 0 
LINE
 8 
0
 62 
 7 
 10 
0.694
 20 
0.163
 11 
0.707
 21 
0.163
 0 
LINE
 8 
0
 62 
 7 
 10 
0.707
 20 
0.163
 11 
0.713
 21 
0.157
 0 
LINE
 8 
0
 62 
 7 
 10 
0.713
 20 
0.157
 11 
0.713
 21 
0.144
 0 
LINE
 8 
0
 62 
 7 
 10 
0.713
 20 
0.144
 11 
0.707
 21 
0.138
 0 
LINE
 8 
0
 62 
 7 
 10 
0.675
 20 
0.176
 11 
0.694
 21 
0.176
 0 
LINE
 8 
0
 62 
 7 
 10 
0.694
 20 
0.176
 11 
0.707
 21 
0.189
 0 
LINE
 8 
0
 62 
 7 
 10 
0.707
 20 
0.189
 11 
0.694
 21 
0.201
 0 
LINE
 8 
0
 62 
 7 
 10 
0.694
 20 
0.201
 11 
0.675
 21 
0.201
 0 
LINE
 8 
0
 62 
 7 
 10 
0.707
 20 
0.189
 11 
0.713
 21 
0.189
 0 
LINE
 8 
0
 62 
 7 
 10 
0.431
 20 
1.475
 11 
0.444
 21 
1.475
 0 
LINE
 8 
0
 62 
 7 
 10 
0.431
 20 
1.437
 11 
0.444
 21 
1.437
 0 
LINE
 8 
0
 62 
 7 
 10 
0.438
 20 
1.475
 11 
0.438
 21 
1.437
 0 
LINE
 8 
0
 62 
 7 
 10 
0.463
 20 
1.437
 11 
0.463
 21 
1.475
 0 
LINE
 8 
0
 62 
 7 
 10 
0.463
 20 
1.475
 11 
0.482
 21 
1.475
 0 
LINE
 8 
0
 62 
 7 
 10 
0.482
 20 
1.475
 11 
0.488
 21 
1.469
 0 
LINE
 8 
0
 62 
 7 
 10 
0.488
 20 
1.469
 11 
0.488
 21 
1.462
 0 
LINE
 8 
0
 62 
 7 
 10 
0.488
 20 
1.462
 11 
0.482
 21 
1.456
 0 
LINE
 8 
0
 62 
 7 
 10 
0.482
 20 
1.456
 11 
0.463
 21 
1.456
 0 
LINE
 8 
0
 62 
 7 
 10 
0.469
 20 
1.456
 11 
0.488
 21 
1.437
 0 
LINE
 8 
0
 62 
 7 
 10 
0.501
 20 
1.456
 11 
0.526
 21 
1.456
 0 
LINE
 8 
0
 62 
 7 
 10 
0.539
 20 
1.475
 11 
0.539
 21 
1.437
 0 
LINE
 8 
0
 62 
 7 
 10 
0.539
 20 
1.437
 11 
0.564
 21 
1.437
 0 
LINE
 8 
0
 62 
 7 
 10 
0.602
 20 
1.475
 11 
0.577
 21 
1.475
 0 
LINE
 8 
0
 62 
 7 
 10 
0.577
 20 
1.475
 11 
0.577
 21 
1.437
 0 
LINE
 8 
0
 62 
 7 
 10 
0.577
 20 
1.437
 11 
0.602
 21 
1.437
 0 
LINE
 8 
0
 62 
 7 
 10 
0.577
 20 
1.456
 11 
0.596
 21 
1.456
 0 
LINE
 8 
0
 62 
 7 
 10 
0.615
 20 
1.475
 11 
0.634
 21 
1.475
 0 
LINE
 8 
0
 62 
 7 
 10 
0.634
 20 
1.475
 11 
0.64
 21 
1.469
 0 
LINE
 8 
0
 62 
 7 
 10 
0.64
 20 
1.469
 11 
0.64
 21 
1.443
 0 
LINE
 8 
0
 62 
 7 
 10 
0.64
 20 
1.443
 11 
0.634
 21 
1.437
 0 
LINE
 8 
0
 62 
 7 
 10 
0.634
 20 
1.437
 11 
0.615
 21 
1.437
 0 
LINE
 8 
0
 62 
 7 
 10 
0.621
 20 
1.475
 11 
0.621
 21 
1.437
 0 
LINE
 8 
0
 62 
 7 
 10 
0.081
 20 
1.475
 11 
0.094
 21 
1.475
 0 
LINE
 8 
0
 62 
 7 
 10 
0.081
 20 
1.437
 11 
0.094
 21 
1.437
 0 
LINE
 8 
0
 62 
 7 
 10 
0.088
 20 
1.475
 11 
0.088
 21 
1.437
 0 
LINE
 8 
0
 62 
 7 
 10 
0.113
 20 
1.437
 11 
0.113
 21 
1.475
 0 
LINE
 8 
0
 62 
 7 
 10 
0.113
 20 
1.475
 11 
0.132
 21 
1.475
 0 
LINE
 8 
0
 62 
 7 
 10 
0.132
 20 
1.475
 11 
0.138
 21 
1.469
 0 
LINE
 8 
0
 62 
 7 
 10 
0.138
 20 
1.469
 11 
0.138
 21 
1.462
 0 
LINE
 8 
0
 62 
 7 
 10 
0.138
 20 
1.462
 11 
0.132
 21 
1.456
 0 
LINE
 8 
0
 62 
 7 
 10 
0.132
 20 
1.456
 11 
0.113
 21 
1.456
 0 
LINE
 8 
0
 62 
 7 
 10 
0.119
 20 
1.456
 11 
0.138
 21 
1.437
 0 
LINE
 8 
0
 62 
 7 
 10 
0.151
 20 
1.456
 11 
0.176
 21 
1.456
 0 
LINE
 8 
0
 62 
 7 
 10 
0.189
 20 
1.437
 11 
0.189
 21 
1.475
 0 
LINE
 8 
0
 62 
 7 
 10 
0.189
 20 
1.475
 11 
0.208
 21 
1.475
 0 
LINE
 8 
0
 62 
 7 
 10 
0.208
 20 
1.475
 11 
0.214
 21 
1.469
 0 
LINE
 8 
0
 62 
 7 
 10 
0.214
 20 
1.469
 11 
0.214
 21 
1.462
 0 
LINE
 8 
0
 62 
 7 
 10 
0.214
 20 
1.462
 11 
0.208
 21 
1.456
 0 
LINE
 8 
0
 62 
 7 
 10 
0.208
 20 
1.456
 11 
0.189
 21 
1.456
 0 
LINE
 8 
0
 62 
 7 
 10 
0.227
 20 
1.475
 11 
0.246
 21 
1.475
 0 
LINE
 8 
0
 62 
 7 
 10 
0.246
 20 
1.475
 11 
0.252
 21 
1.469
 0 
LINE
 8 
0
 62 
 7 
 10 
0.252
 20 
1.469
 11 
0.252
 21 
1.443
 0 
LINE
 8 
0
 62 
 7 
 10 
0.252
 20 
1.443
 11 
0.246
 21 
1.437
 0 
LINE
 8 
0
 62 
 7 
 10 
0.246
 20 
1.437
 11 
0.227
 21 
1.437
 0 
LINE
 8 
0
 62 
 7 
 10 
0.233
 20 
1.475
 11 
0.233
 21 
1.437
 0 
LINE
 8 
0
 62 
 7 
 10 
0.315
 20 
0.525
 11 
0.275
 21 
0.525
 0 
LINE
 8 
0
 62 
 7 
 10 
0.275
 20 
0.525
 11 
0.275
 21 
0.545
 0 
LINE
 8 
0
 62 
 7 
 10 
0.275
 20 
0.545
 11 
0.282
 21 
0.552
 0 
LINE
 8 
0
 62 
 7 
 10 
0.282
 20 
0.552
 11 
0.288
 21 
0.552
 0 
LINE
 8 
0
 62 
 7 
 10 
0.288
 20 
0.552
 11 
0.295
 21 
0.545
 0 
LINE
 8 
0
 62 
 7 
 10 
0.295
 20 
0.545
 11 
0.295
 21 
0.525
 0 
LINE
 8 
0
 62 
 7 
 10 
0.295
 20 
0.592
 11 
0.288
 21 
0.585
 0 
LINE
 8 
0
 62 
 7 
 10 
0.288
 20 
0.585
 11 
0.288
 21 
0.572
 0 
LINE
 8 
0
 62 
 7 
 10 
0.288
 20 
0.572
 11 
0.295
 21 
0.565
 0 
LINE
 8 
0
 62 
 7 
 10 
0.295
 20 
0.565
 11 
0.308
 21 
0.565
 0 
LINE
 8 
0
 62 
 7 
 10 
0.308
 20 
0.565
 11 
0.315
 21 
0.572
 0 
LINE
 8 
0
 62 
 7 
 10 
0.315
 20 
0.572
 11 
0.315
 21 
0.585
 0 
LINE
 8 
0
 62 
 7 
 10 
0.315
 20 
0.585
 11 
0.308
 21 
0.592
 0 
LINE
 8 
0
 62 
 7 
 10 
0.308
 20 
0.592
 11 
0.295
 21 
0.592
 0 
LINE
 8 
0
 62 
 7 
 10 
0.275
 20 
0.612
 11 
0.308
 21 
0.612
 0 
LINE
 8 
0
 62 
 7 
 10 
0.308
 20 
0.612
 11 
0.315
 21 
0.618
 0 
LINE
 8 
0
 62 
 7 
 10 
0.315
 20 
0.618
 11 
0.315
 21 
0.625
 0 
LINE
 8 
0
 62 
 7 
 10 
0.315
 20 
0.625
 11 
0.308
 21 
0.632
 0 
LINE
 8 
0
 62 
 7 
 10 
0.288
 20 
0.605
 11 
0.288
 21 
0.625
 0 
LINE
 8 
0
 62 
 7 
 10 
0.302
 20 
0.645
 11 
0.302
 21 
0.672
 0 
LINE
 8 
0
 62 
 7 
 10 
0.302
 20 
0.672
 11 
0.295
 21 
0.672
 0 
LINE
 8 
0
 62 
 7 
 10 
0.295
 20 
0.672
 11 
0.288
 21 
0.665
 0 
LINE
 8 
0
 62 
 7 
 10 
0.288
 20 
0.665
 11 
0.288
 21 
0.652
 0 
LINE
 8 
0
 62 
 7 
 10 
0.288
 20 
0.652
 11 
0.295
 21 
0.645
 0 
LINE
 8 
0
 62 
 7 
 10 
0.295
 20 
0.645
 11 
0.308
 21 
0.645
 0 
LINE
 8 
0
 62 
 7 
 10 
0.308
 20 
0.645
 11 
0.315
 21 
0.652
 0 
LINE
 8 
0
 62 
 7 
 10 
0.315
 20 
0.652
 11 
0.315
 21 
0.665
 0 
LINE
 8 
0
 62 
 7 
 10 
0.288
 20 
0.685
 11 
0.315
 21 
0.685
 0 
LINE
 8 
0
 62 
 7 
 10 
0.302
 20 
0.685
 11 
0.288
 21 
0.698
 0 
LINE
 8 
0
 62 
 7 
 10 
0.288
 20 
0.698
 11 
0.288
 21 
0.705
 0 
LINE
 8 
0
 62 
 7 
 10 
0.288
 20 
0.705
 11 
0.295
 21 
0.712
 0 
LINE
 8 
0
 62 
 7 
 10 
0.295
 20 
0.712
 11 
0.315
 21 
0.712
 0 
LINE
 8 
0
 62 
 7 
 10 
0.275
 20 
0.732
 11 
0.308
 21 
0.732
 0 
LINE
 8 
0
 62 
 7 
 10 
0.308
 20 
0.732
 11 
0.315
 21 
0.738
 0 
LINE
 8 
0
 62 
 7 
 10 
0.315
 20 
0.738
 11 
0.315
 21 
0.745
 0 
LINE
 8 
0
 62 
 7 
 10 
0.315
 20 
0.745
 11 
0.308
 21 
0.752
 0 
LINE
 8 
0
 62 
 7 
 10 
0.288
 20 
0.725
 11 
0.288
 21 
0.745
 0 
LINE
 8 
0
 62 
 7 
 10 
0.275
 20 
0.778
 11 
0.282
 21 
0.778
 0 
LINE
 8 
0
 62 
 7 
 10 
0.315
 20 
0.772
 11 
0.315
 21 
0.785
 0 
LINE
 8 
0
 62 
 7 
 10 
0.295
 20 
0.772
 11 
0.295
 21 
0.778
 0 
LINE
 8 
0
 62 
 7 
 10 
0.295
 20 
0.778
 11 
0.315
 21 
0.778
 0 
LINE
 8 
0
 62 
 7 
 10 
0.295
 20 
0.832
 11 
0.288
 21 
0.825
 0 
LINE
 8 
0
 62 
 7 
 10 
0.288
 20 
0.825
 11 
0.288
 21 
0.812
 0 
LINE
 8 
0
 62 
 7 
 10 
0.288
 20 
0.812
 11 
0.295
 21 
0.805
 0 
LINE
 8 
0
 62 
 7 
 10 
0.295
 20 
0.805
 11 
0.308
 21 
0.805
 0 
LINE
 8 
0
 62 
 7 
 10 
0.308
 20 
0.805
 11 
0.315
 21 
0.812
 0 
LINE
 8 
0
 62 
 7 
 10 
0.315
 20 
0.812
 11 
0.315
 21 
0.825
 0 
LINE
 8 
0
 62 
 7 
 10 
0.315
 20 
0.825
 11 
0.308
 21 
0.832
 0 
LINE
 8 
0
 62 
 7 
 10 
0.308
 20 
0.832
 11 
0.295
 21 
0.832
 0 
LINE
 8 
0
 62 
 7 
 10 
0.288
 20 
0.845
 11 
0.315
 21 
0.845
 0 
LINE
 8 
0
 62 
 7 
 10 
0.295
 20 
0.845
 11 
0.288
 21 
0.852
 0 
LINE
 8 
0
 62 
 7 
 10 
0.288
 20 
0.852
 11 
0.295
 21 
0.858
 0 
LINE
 8 
0
 62 
 7 
 10 
0.295
 20 
0.858
 11 
0.315
 21 
0.858
 0 
LINE
 8 
0
 62 
 7 
 10 
0.295
 20 
0.858
 11 
0.288
 21 
0.865
 0 
LINE
 8 
0
 62 
 7 
 10 
0.288
 20 
0.865
 11 
0.295
 21 
0.872
 0 
LINE
 8 
0
 62 
 7 
 10 
0.295
 20 
0.872
 11 
0.315
 21 
0.872
 0 
LINE
 8 
0
 62 
 7 
 10 
0.302
 20 
0.885
 11 
0.302
 21 
0.912
 0 
LINE
 8 
0
 62 
 7 
 10 
0.302
 20 
0.912
 11 
0.295
 21 
0.912
 0 
LINE
 8 
0
 62 
 7 
 10 
0.295
 20 
0.912
 11 
0.288
 21 
0.905
 0 
LINE
 8 
0
 62 
 7 
 10 
0.288
 20 
0.905
 11 
0.288
 21 
0.892
 0 
LINE
 8 
0
 62 
 7 
 10 
0.288
 20 
0.892
 11 
0.295
 21 
0.885
 0 
LINE
 8 
0
 62 
 7 
 10 
0.295
 20 
0.885
 11 
0.308
 21 
0.885
 0 
LINE
 8 
0
 62 
 7 
 10 
0.308
 20 
0.885
 11 
0.315
 21 
0.892
 0 
LINE
 8 
0
 62 
 7 
 10 
0.315
 20 
0.892
 11 
0.315
 21 
0.905
 0 
LINE
 8 
0
 62 
 7 
 10 
0.275
 20 
0.932
 11 
0.308
 21 
0.932
 0 
LINE
 8 
0
 62 
 7 
 10 
0.308
 20 
0.932
 11 
0.315
 21 
0.938
 0 
LINE
 8 
0
 62 
 7 
 10 
0.315
 20 
0.938
 11 
0.315
 21 
0.945
 0 
LINE
 8 
0
 62 
 7 
 10 
0.315
 20 
0.945
 11 
0.308
 21 
0.952
 0 
LINE
 8 
0
 62 
 7 
 10 
0.288
 20 
0.925
 11 
0.288
 21 
0.945
 0 
LINE
 8 
0
 62 
 7 
 10 
0.302
 20 
0.965
 11 
0.302
 21 
0.992
 0 
LINE
 8 
0
 62 
 7 
 10 
0.302
 20 
0.992
 11 
0.295
 21 
0.992
 0 
LINE
 8 
0
 62 
 7 
 10 
0.295
 20 
0.992
 11 
0.288
 21 
0.985
 0 
LINE
 8 
0
 62 
 7 
 10 
0.288
 20 
0.985
 11 
0.288
 21 
0.972
 0 
LINE
 8 
0
 62 
 7 
 10 
0.288
 20 
0.972
 11 
0.295
 21 
0.965
 0 
LINE
 8 
0
 62 
 7 
 10 
0.295
 20 
0.965
 11 
0.308
 21 
0.965
 0 
LINE
 8 
0
 62 
 7 
 10 
0.308
 20 
0.965
 11 
0.315
 21 
0.972
 0 
LINE
 8 
0
 62 
 7 
 10 
0.315
 20 
0.972
 11 
0.315
 21 
0.985
 0 
LINE
 8 
0
 62 
 7 
 10 
0.288
 20 
1.005
 11 
0.315
 21 
1.005
 0 
LINE
 8 
0
 62 
 7 
 10 
0.302
 20 
1.005
 11 
0.288
 21 
1.018
 0 
LINE
 8 
0
 62 
 7 
 10 
0.288
 20 
1.018
 11 
0.288
 21 
1.025
 0 
LINE
 8 
0
 62 
 7 
 10 
0.288
 20 
1.025
 11 
0.295
 21 
1.032
 0 
LINE
 8 
0
 62 
 7 
 10 
0.625
 20 
0.725
 11 
0.67
 21 
0.725
 0 
LINE
 8 
0
 62 
 7 
 10 
0.67
 20 
0.725
 11 
0.67
 21 
0.755
 0 
LINE
 8 
0
 62 
 7 
 10 
0.67
 20 
0.77
 11 
0.625
 21 
0.77
 0 
LINE
 8 
0
 62 
 7 
 10 
0.625
 20 
0.77
 11 
0.64
 21 
0.785
 0 
LINE
 8 
0
 62 
 7 
 10 
0.64
 20 
0.785
 11 
0.647
 21 
0.785
 0 
LINE
 8 
0
 62 
 7 
 10 
0.64
 20 
0.785
 11 
0.625
 21 
0.8
 0 
LINE
 8 
0
 62 
 7 
 10 
0.625
 20 
0.8
 11 
0.67
 21 
0.8
 0 
LINE
 8 
0
 62 
 7 
 10 
0.633
 20 
0.815
 11 
0.625
 21 
0.823
 0 
LINE
 8 
0
 62 
 7 
 10 
0.625
 20 
0.823
 11 
0.625
 21 
0.837
 0 
LINE
 8 
0
 62 
 7 
 10 
0.625
 20 
0.837
 11 
0.633
 21 
0.845
 0 
LINE
 8 
0
 62 
 7 
 10 
0.633
 20 
0.845
 11 
0.64
 21 
0.845
 0 
LINE
 8 
0
 62 
 7 
 10 
0.64
 20 
0.845
 11 
0.647
 21 
0.837
 0 
LINE
 8 
0
 62 
 7 
 10 
0.647
 20 
0.837
 11 
0.647
 21 
0.83
 0 
LINE
 8 
0
 62 
 7 
 10 
0.647
 20 
0.837
 11 
0.655
 21 
0.845
 0 
LINE
 8 
0
 62 
 7 
 10 
0.655
 20 
0.845
 11 
0.663
 21 
0.845
 0 
LINE
 8 
0
 62 
 7 
 10 
0.663
 20 
0.845
 11 
0.67
 21 
0.837
 0 
LINE
 8 
0
 62 
 7 
 10 
0.67
 20 
0.837
 11 
0.67
 21 
0.823
 0 
LINE
 8 
0
 62 
 7 
 10 
0.67
 20 
0.823
 11 
0.663
 21 
0.815
 0 
LINE
 8 
0
 62 
 7 
 10 
0.625
 20 
0.89
 11 
0.625
 21 
0.86
 0 
LINE
 8 
0
 62 
 7 
 10 
0.625
 20 
0.86
 11 
0.64
 21 
0.86
 0 
LINE
 8 
0
 62 
 7 
 10 
0.64
 20 
0.86
 11 
0.64
 21 
0.883
 0 
LINE
 8 
0
 62 
 7 
 10 
0.64
 20 
0.883
 11 
0.647
 21 
0.89
 0 
LINE
 8 
0
 62 
 7 
 10 
0.647
 20 
0.89
 11 
0.663
 21 
0.89
 0 
LINE
 8 
0
 62 
 7 
 10 
0.663
 20 
0.89
 11 
0.67
 21 
0.883
 0 
LINE
 8 
0
 62 
 7 
 10 
0.67
 20 
0.883
 11 
0.67
 21 
0.867
 0 
LINE
 8 
0
 62 
 7 
 10 
0.67
 20 
0.867
 11 
0.663
 21 
0.86
 0 
LINE
 8 
0
 62 
 7 
 10 
0.647
 20 
0.913
 11 
0.64
 21 
0.905
 0 
LINE
 8 
0
 62 
 7 
 10 
0.64
 20 
0.905
 11 
0.633
 21 
0.905
 0 
LINE
 8 
0
 62 
 7 
 10 
0.633
 20 
0.905
 11 
0.625
 21 
0.913
 0 
LINE
 8 
0
 62 
 7 
 10 
0.625
 20 
0.913
 11 
0.625
 21 
0.927
 0 
LINE
 8 
0
 62 
 7 
 10 
0.625
 20 
0.927
 11 
0.633
 21 
0.935
 0 
LINE
 8 
0
 62 
 7 
 10 
0.633
 20 
0.935
 11 
0.64
 21 
0.935
 0 
LINE
 8 
0
 62 
 7 
 10 
0.64
 20 
0.935
 11 
0.647
 21 
0.927
 0 
LINE
 8 
0
 62 
 7 
 10 
0.647
 20 
0.927
 11 
0.647
 21 
0.913
 0 
LINE
 8 
0
 62 
 7 
 10 
0.647
 20 
0.913
 11 
0.655
 21 
0.905
 0 
LINE
 8 
0
 62 
 7 
 10 
0.655
 20 
0.905
 11 
0.663
 21 
0.905
 0 
LINE
 8 
0
 62 
 7 
 10 
0.663
 20 
0.905
 11 
0.67
 21 
0.913
 0 
LINE
 8 
0
 62 
 7 
 10 
0.67
 20 
0.913
 11 
0.67
 21 
0.927
 0 
LINE
 8 
0
 62 
 7 
 10 
0.67
 20 
0.927
 11 
0.663
 21 
0.935
 0 
LINE
 8 
0
 62 
 7 
 10 
0.663
 20 
0.935
 11 
0.655
 21 
0.935
 0 
LINE
 8 
0
 62 
 7 
 10 
0.655
 20 
0.935
 11 
0.647
 21 
0.927
 0 
LINE
 8 
0
 62 
 7 
 10 
0.081
 20 
0.756
 11 
0.075
 21 
0.763
 0 
LINE
 8 
0
 62 
 7 
 10 
0.075
 20 
0.763
 11 
0.113
 21 
0.763
 0 
LINE
 8 
0
 62 
 7 
 10 
0.113
 20 
0.756
 11 
0.113
 21 
0.769
 0 
LINE
 8 
0
 62 
 7 
 10 
0.107
 20 
0.788
 11 
0.081
 21 
0.788
 0 
LINE
 8 
0
 62 
 7 
 10 
0.081
 20 
0.788
 11 
0.075
 21 
0.794
 0 
LINE
 8 
0
 62 
 7 
 10 
0.075
 20 
0.794
 11 
0.075
 21 
0.807
 0 
LINE
 8 
0
 62 
 7 
 10 
0.075
 20 
0.807
 11 
0.081
 21 
0.813
 0 
LINE
 8 
0
 62 
 7 
 10 
0.081
 20 
0.813
 11 
0.107
 21 
0.813
 0 
LINE
 8 
0
 62 
 7 
 10 
0.107
 20 
0.813
 11 
0.113
 21 
0.807
 0 
LINE
 8 
0
 62 
 7 
 10 
0.113
 20 
0.807
 11 
0.113
 21 
0.794
 0 
LINE
 8 
0
 62 
 7 
 10 
0.113
 20 
0.794
 11 
0.107
 21 
0.788
 0 
LINE
 8 
0
 62 
 7 
 10 
0.107
 20 
0.788
 11 
0.081
 21 
0.813
 0 
LINE
 8 
0
 62 
 7 
 10 
0.075
 20 
0.826
 11 
0.113
 21 
0.826
 0 
LINE
 8 
0
 62 
 7 
 10 
0.075
 20 
0.851
 11 
0.094
 21 
0.832
 0 
LINE
 8 
0
 62 
 7 
 10 
0.094
 20 
0.826
 11 
0.094
 21 
0.832
 0 
LINE
 8 
0
 62 
 7 
 10 
0.094
 20 
0.832
 11 
0.113
 21 
0.851
 0 
LINE
 8 
0
 62 
 7 
 10 
0.981
 20 
0.775
 11 
0.975
 21 
0.781
 0 
LINE
 8 
0
 62 
 7 
 10 
0.975
 20 
0.781
 11 
0.975
 21 
0.794
 0 
LINE
 8 
0
 62 
 7 
 10 
0.975
 20 
0.794
 11 
0.981
 21 
0.8
 0 
LINE
 8 
0
 62 
 7 
 10 
0.981
 20 
0.8
 11 
0.988
 21 
0.8
 0 
LINE
 8 
0
 62 
 7 
 10 
0.988
 20 
0.8
 11 
0.994
 21 
0.794
 0 
LINE
 8 
0
 62 
 7 
 10 
0.994
 20 
0.794
 11 
0.994
 21 
0.781
 0 
LINE
 8 
0
 62 
 7 
 10 
0.994
 20 
0.781
 11 
1.0
 21 
0.775
 0 
LINE
 8 
0
 62 
 7 
 10 
1.0
 20 
0.775
 11 
1.013
 21 
0.775
 0 
LINE
 8 
0
 62 
 7 
 10 
1.013
 20 
0.775
 11 
1.013
 21 
0.8
 0 
LINE
 8 
0
 62 
 7 
 10 
0.981
 20 
0.813
 11 
0.975
 21 
0.819
 0 
LINE
 8 
0
 62 
 7 
 10 
0.975
 20 
0.819
 11 
0.975
 21 
0.832
 0 
LINE
 8 
0
 62 
 7 
 10 
0.975
 20 
0.832
 11 
0.981
 21 
0.838
 0 
LINE
 8 
0
 62 
 7 
 10 
0.981
 20 
0.838
 11 
0.988
 21 
0.838
 0 
LINE
 8 
0
 62 
 7 
 10 
0.988
 20 
0.838
 11 
0.994
 21 
0.832
 0 
LINE
 8 
0
 62 
 7 
 10 
0.994
 20 
0.832
 11 
0.994
 21 
0.819
 0 
LINE
 8 
0
 62 
 7 
 10 
0.994
 20 
0.819
 11 
1.0
 21 
0.813
 0 
LINE
 8 
0
 62 
 7 
 10 
1.0
 20 
0.813
 11 
1.013
 21 
0.813
 0 
LINE
 8 
0
 62 
 7 
 10 
1.013
 20 
0.813
 11 
1.013
 21 
0.838
 0 
LINE
 8 
0
 62 
 7 
 10 
1.007
 20 
0.851
 11 
0.981
 21 
0.851
 0 
LINE
 8 
0
 62 
 7 
 10 
0.981
 20 
0.851
 11 
0.975
 21 
0.857
 0 
LINE
 8 
0
 62 
 7 
 10 
0.975
 20 
0.857
 11 
0.975
 21 
0.87
 0 
LINE
 8 
0
 62 
 7 
 10 
0.975
 20 
0.87
 11 
0.981
 21 
0.876
 0 
LINE
 8 
0
 62 
 7 
 10 
0.981
 20 
0.876
 11 
1.007
 21 
0.876
 0 
LINE
 8 
0
 62 
 7 
 10 
1.007
 20 
0.876
 11 
1.013
 21 
0.87
 0 
LINE
 8 
0
 62 
 7 
 10 
1.013
 20 
0.87
 11 
1.013
 21 
0.857
 0 
LINE
 8 
0
 62 
 7 
 10 
1.013
 20 
0.857
 11 
1.007
 21 
0.851
 0 
LINE
 8 
0
 62 
 7 
 10 
1.007
 20 
0.851
 11 
0.981
 21 
0.876
 0 
ENDSEC
 0 
EOF
